<svg xmlns="http://www.w3.org/2000/svg" width="26.152" height="21.616" viewBox="0 0 26.152 21.616">
  <path id="earphones" d="M25,56.383v-.06A11.908,11.908,0,0,0,4.655,47.9a11.838,11.838,0,0,0-3.5,8.421v.06A1.409,1.409,0,0,0,0,57.766v4.649a1.408,1.408,0,0,0,1.407,1.407h.869v.2a2,2,0,0,0,1.994,1.993h.772a1.223,1.223,0,0,0,1.221-1.221V55.386a1.223,1.223,0,0,0-1.221-1.221H4.269a2,2,0,0,0-1.994,1.994v.2H1.971v-.037a11.105,11.105,0,0,1,22.21,0v.037h-.305v-.2a2,2,0,0,0-1.994-1.994h-.772a1.223,1.223,0,0,0-1.221,1.221v9.409a1.223,1.223,0,0,0,1.221,1.221h.772a2,2,0,0,0,1.994-1.994v-.2h.869a1.408,1.408,0,0,0,1.406-1.406V57.766A1.409,1.409,0,0,0,25,56.383ZM3.093,56.159a1.178,1.178,0,0,1,1.176-1.176h.772a.4.4,0,0,1,.4.4V64.8a.4.4,0,0,1-.4.4H4.269a1.178,1.178,0,0,1-1.176-1.176ZM2.276,63H1.407a.59.59,0,0,1-.589-.589V57.766a.59.59,0,0,1,.589-.589h.869Zm20.783,1.018A1.178,1.178,0,0,1,21.883,65.2h-.772a.4.4,0,0,1-.4-.4V55.386a.4.4,0,0,1,.4-.4h.772a1.178,1.178,0,0,1,1.176,1.176Zm2.276-1.607a.59.59,0,0,1-.589.589h-.869V57.177h.869a.59.59,0,0,1,.589.589Z" transform="translate(0 -44.4)" fill="#fff"/>
</svg>
