<svg id="edit_1_" data-name="edit (1)" xmlns="http://www.w3.org/2000/svg" width="20.769" height="14.538" viewBox="0 0 20.769 14.538">
  <g id="Group_902" data-name="Group 902" transform="translate(2.077)">
    <path id="Path_652" data-name="Path 652" d="M23.041,31.025a2.077,2.077,0,1,1,0-1.038H37.126a.519.519,0,0,1,0,1.038Zm-.973-.519a1.038,1.038,0,1,1-1.038-1.038A1.038,1.038,0,0,1,22.068,30.506Z" transform="translate(-18.953 -28.429)" fill-rule="evenodd"/>
  </g>
  <g id="Group_903" data-name="Group 903" transform="translate(0 1.558)">
    <path id="Path_653" data-name="Path 653" d="M.519,43.681H2.142a2.093,2.093,0,0,1,0-1.038H.519a.519.519,0,1,0,0,1.038Z" transform="translate(0 -42.643)"/>
  </g>
  <g id="Group_904" data-name="Group 904" transform="translate(0 10.385)">
    <path id="Path_654" data-name="Path 654" d="M12.4,124.749a2.078,2.078,0,0,0-4.023,0H.519a.519.519,0,1,0,0,1.038H8.373a2.078,2.078,0,0,0,4.023,0H20.25a.519.519,0,1,0,0-1.038Zm-2.011,1.558a1.038,1.038,0,1,0-1.038-1.038A1.038,1.038,0,0,0,10.385,126.306Z" transform="translate(0 -123.191)" fill-rule="evenodd"/>
  </g>
  <g id="Group_905" data-name="Group 905" transform="translate(0 5.192)">
    <path id="Path_655" data-name="Path 655" d="M18.627,77.368a2.078,2.078,0,0,0-4.023,0H.519a.519.519,0,0,0,0,1.038H14.6a2.078,2.078,0,0,0,4.023,0H20.25a.519.519,0,1,0,0-1.038Zm-2.011,1.558a1.038,1.038,0,1,0-1.038-1.038A1.038,1.038,0,0,0,16.615,78.925Z" transform="translate(0 -75.81)" fill-rule="evenodd"/>
  </g>
</svg>
