<svg xmlns="http://www.w3.org/2000/svg" width="23.582" height="21.616" viewBox="0 0 23.582 21.616">
  <path id="heart_4_" data-name="heart (4)" d="M17.1,0a6.5,6.5,0,0,0-5.306,2.762A6.5,6.5,0,0,0,6.485,0,6.866,6.866,0,0,0,0,6.878c0,3.571,2.016,7.248,5.831,10.635a31.368,31.368,0,0,0,5.779,4.059.394.394,0,0,0,.361,0,31.372,31.372,0,0,0,5.778-4.059c3.817-3.387,5.833-7.065,5.833-10.635A6.866,6.866,0,0,0,17.1,0ZM11.791,20.776c-1.444-.8-11-6.362-11-13.9A6.06,6.06,0,0,1,6.485.786a5.71,5.71,0,0,1,4.963,2.9.409.409,0,0,0,.685,0A5.71,5.71,0,0,1,17.1.786a6.06,6.06,0,0,1,5.7,6.092c0,7.537-9.561,13.1-11,13.9Zm0,0" transform="translate(0 0)" fill="#fff"/>
</svg>
