<svg xmlns="http://www.w3.org/2000/svg" width="140" height="140" viewBox="0 0 140 140">
  <g id="Group_2342" data-name="Group 2342" transform="translate(-438 -259)">
    <path id="casserols" d="M70,0A70,70,0,1,1,0,70,70,70,0,0,1,70,0Z" transform="translate(438 259)" fill="#013564"/>
    <g id="Group_2341" data-name="Group 2341" transform="translate(4397.953 1095.824)" opacity="0.6">
      <path id="Path_757" data-name="Path 757" d="M135.174,20.051H100.459a7.515,7.515,0,0,0-7.506,7.506V62.272a7.515,7.515,0,0,0,7.506,7.506h34.715a7.515,7.515,0,0,0,7.506-7.506V27.557a7.515,7.515,0,0,0-7.506-7.506ZM95.185,27.557a5.28,5.28,0,0,1,5.274-5.274h34.715a5.28,5.28,0,0,1,5.274,5.274V52.444l-7.858-6.982a1.113,1.113,0,0,0-1.549.064L123.633,53.3l-7.29-7.771a1.114,1.114,0,0,0-.809-.352h-.005a1.117,1.117,0,0,0-.807.344l-18.7,19.568a5.23,5.23,0,0,1-.834-2.821Zm2.4,39.127,17.935-18.766,18.412,19.627H100.46a5.234,5.234,0,0,1-2.873-.862Zm39.158.6L125.161,54.933l6.752-7.087,8.534,7.583v6.843a5.263,5.263,0,0,1-3.7,5.008Z" transform="translate(-4007.906 -811.875)" fill="#fff"/>
      <path id="Path_758" data-name="Path 758" d="M341.792,128.595a5.526,5.526,0,1,0-3.9-1.618,5.52,5.52,0,0,0,3.9,1.618Zm0-8.808h0a3.292,3.292,0,1,1-2.325.964,3.289,3.289,0,0,1,2.325-.964Z" transform="translate(-4227.953 -900.053)" fill="#fff"/>
    </g>
  </g>
</svg>
