<svg id="Group_469" data-name="Group 469" xmlns="http://www.w3.org/2000/svg" width="28.669" height="28.668" viewBox="0 0 28.669 28.668">
  <ellipse id="Ellipse_2" data-name="Ellipse 2" cx="14.334" cy="14.334" rx="14.334" ry="14.334" transform="translate(0)" fill="#fff"/>
  <path id="instagram" d="M254.908,5255H246.1a1.1,1.1,0,0,0-1.1,1.1v8.807a1.1,1.1,0,0,0,1.1,1.1h8.807a1.1,1.1,0,0,0,1.1-1.1V5256.1A1.1,1.1,0,0,0,254.908,5255Zm-4.4,3.3a2.2,2.2,0,1,1-2.2,2.2A2.209,2.209,0,0,1,250.5,5258.3Zm-4.128,6.6a.26.26,0,0,1-.275-.275v-4.678h1.156a1.871,1.871,0,0,0-.055.55,3.3,3.3,0,1,0,6.605,0,1.872,1.872,0,0,0-.055-.55h1.156v4.678a.26.26,0,0,1-.275.275Zm8.532-7.43a.26.26,0,0,1-.275.275h-1.1a.26.26,0,0,1-.275-.275v-1.1a.26.26,0,0,1,.275-.276h1.1a.26.26,0,0,1,.275.276Z" transform="translate(-236.126 -5246.125)" fill="#004778"/>
</svg>
