<svg xmlns="http://www.w3.org/2000/svg" width="21.75" height="21.75" viewBox="0 0 21.75 21.75">
  <g id="Group_2026" data-name="Group 2026" transform="translate(-14555.486 -14770.393)">
    <g id="translation" transform="translate(14555.486 14770.393)">
      <path id="Path_731" data-name="Path 731" d="M8.81,11.9a.319.319,0,0,0-.319-.319H1.34a.7.7,0,0,1-.7-.7V1.34a.7.7,0,0,1,.7-.7h9.535a.7.7,0,0,1,.7.7V8.491a.319.319,0,0,0,.637,0V1.34A1.342,1.342,0,0,0,10.875,0H1.34A1.342,1.342,0,0,0,0,1.34v9.535a1.342,1.342,0,0,0,1.34,1.34H8.491A.319.319,0,0,0,8.81,11.9Z" transform="translate(0 0)" fill="#fff"/>
      <path id="Path_732" data-name="Path 732" d="M235.327,224.452H232.6a.319.319,0,1,0,0,.637h2.724a.7.7,0,0,1,.7.7v9.535a.7.7,0,0,1-.7.7h-9.535a.7.7,0,0,1-.7-.7v-9.535a.7.7,0,0,1,.7-.7h5.449a.319.319,0,0,0,0-.637h-5.449a1.342,1.342,0,0,0-1.34,1.34v9.535a1.342,1.342,0,0,0,1.34,1.34h9.535a1.342,1.342,0,0,0,1.34-1.34v-9.535A1.342,1.342,0,0,0,235.327,224.452Z" transform="translate(-214.917 -214.917)" fill="#fff"/>
      <path id="Path_734" data-name="Path 734" d="M306.935,288.863a.456.456,0,0,0-.423-.284h0a.456.456,0,0,0-.423.284l0,.007-2.3,6.043a.319.319,0,1,0,.6.227l.5-1.3h3.258l.49,1.3a.319.319,0,0,0,.6-.225l-2.281-6.043Zm-1.818,4.341,1.394-3.66,1.381,3.66Z" transform="translate(-290.859 -276.321)" fill="#fff"/>
      <path id="Path_735" data-name="Path 735" d="M93.114,309.107l-1.362-1.022a.319.319,0,1,0-.382.51l.6.448H90.879a2.067,2.067,0,0,1-2.065-2.065v-2.043a.319.319,0,0,0-.637,0v2.043a2.705,2.705,0,0,0,2.7,2.7h1.087l-.6.448a.319.319,0,0,0,.382.51l1.362-1.022a.319.319,0,0,0,0-.51Z" transform="translate(-84.431 -291.677)" fill="#fff"/>
      <path id="Path_736" data-name="Path 736" d="M304.74,65.724l1.362,1.022a.319.319,0,0,0,.382-.51l-.6-.448h1.087a2.067,2.067,0,0,1,2.065,2.065V69.9a.319.319,0,0,0,.637,0V67.853a2.705,2.705,0,0,0-2.7-2.7h-1.087l.6-.448a.319.319,0,0,0-.382-.51l-1.362,1.022a.319.319,0,0,0,0,.51Z" transform="translate(-291.673 -61.404)" fill="#fff"/>
    </g>
    <g id="om" transform="translate(14558.479 14772.876)">
      <path id="Path_738" data-name="Path 738" d="M96.23,123.067a1.937,1.937,0,0,0-1.634.926,2.02,2.02,0,0,0-.686-.668,1.413,1.413,0,0,0,.359-.947,1.309,1.309,0,1,0-2.615,0,.327.327,0,1,0,.654,0,.655.655,0,1,1,.654.689.345.345,0,0,0,0,.689,1.38,1.38,0,1,1-1.307,1.378.327.327,0,1,0-.654,0,1.964,1.964,0,1,0,3.922,0,1.309,1.309,0,1,1,1.307,1.378.345.345,0,0,0,0,.689,2.07,2.07,0,0,0,0-4.134Z" transform="translate(-91 -121)" fill="#fff"/>
    </g>
  </g>
</svg>
