<svg xmlns="http://www.w3.org/2000/svg" width="12.51" height="16.756" viewBox="0 0 12.51 16.756">
  <g id="pin_1_" data-name="pin (1)" transform="translate(-47.83 0.25)">
    <g id="Group_2032" data-name="Group 2032" transform="translate(48.08)">
      <g id="Group_2031" data-name="Group 2031" transform="translate(0)">
        <path id="Path_742" data-name="Path 742" d="M54.085,0A6.012,6.012,0,0,0,48.08,6.005a6.928,6.928,0,0,0,.509,2.312,9.683,9.683,0,0,0,.694,1.3L53.4,15.854a.783.783,0,0,0,1.368,0l4.118-6.239a9.644,9.644,0,0,0,.694-1.3,6.927,6.927,0,0,0,.509-2.312A6.012,6.012,0,0,0,54.085,0ZM58.93,8.043A8.873,8.873,0,0,1,58.3,9.226l-4.118,6.239c-.081.123-.107.123-.188,0L49.873,9.226a8.877,8.877,0,0,1-.633-1.184,6.289,6.289,0,0,1-.454-2.038,5.3,5.3,0,0,1,10.6,0A6.294,6.294,0,0,1,58.93,8.043Z" transform="translate(-48.08)" stroke="#000" stroke-width="0.5"/>
        <path id="Path_743" data-name="Path 743" d="M115.259,64.008a3.179,3.179,0,1,0,3.179,3.179A3.183,3.183,0,0,0,115.259,64.008Zm0,5.652a2.473,2.473,0,1,1,2.473-2.473A2.476,2.476,0,0,1,115.259,69.66Z" transform="translate(-109.254 -61.182)" stroke="#000" stroke-width="0.5"/>
      </g>
    </g>
  </g>
</svg>
