<svg xmlns="http://www.w3.org/2000/svg" width="19.481" height="21.378" viewBox="0 0 19.481 21.378">
  <g id="user_7_" data-name="user (7)" transform="translate(0.784 0.4)">
    <g id="Group_2027" data-name="Group 2027">
      <g id="Group_2028" data-name="Group 2028">
        <path id="Path_739" data-name="Path 739" d="M11.343,8.806a4.678,4.678,0,0,0,2.5-4.122,4.76,4.76,0,0,0-9.52,0,4.678,4.678,0,0,0,2.5,4.122A8.976,8.976,0,0,0,0,17.456a.429.429,0,0,0,.433.426.429.429,0,0,0,.433-.426A8.166,8.166,0,0,1,9.087,9.367a8.166,8.166,0,0,1,8.222,8.089.433.433,0,0,0,.865,0A8.976,8.976,0,0,0,11.343,8.806ZM5.193,4.683a3.895,3.895,0,0,1,7.789,0,3.895,3.895,0,0,1-7.789,0Z" transform="translate(-0.145)" fill="#fff" stroke="#fdfdfd" stroke-width="0.8"/>
        <path id="Path_740" data-name="Path 740" d="M0,20.616s4.379,2.638,8.629,2.638A18.006,18.006,0,0,0,17,20.616" transform="translate(0.451 -3.176)" fill="none" stroke="#fff" stroke-linecap="round" stroke-width="1.8"/>
      </g>
    </g>
  </g>
</svg>
