<svg xmlns="http://www.w3.org/2000/svg" width="18.013" height="18" viewBox="0 0 18.013 18">
  <g id="question" transform="translate(0 -0.154)">
    <g id="Group_2037" data-name="Group 2037" transform="translate(0 0.154)">
      <g id="Group_2036" data-name="Group 2036" transform="translate(0 0)">
        <path id="Path_754" data-name="Path 754" d="M13.95,1.627A9.013,9.013,0,0,0,0,9.156a8.819,8.819,0,0,0,1.49,4.915L.035,17.557a.436.436,0,0,0,.566.566l3.486-1.455A8.993,8.993,0,1,0,13.95,1.627ZM9.019,17.287H9.011V17.3h0a8.209,8.209,0,0,1-4.627-1.473.436.436,0,0,0-.244-.078.428.428,0,0,0-.166,0L1.246,16.912l1.142-2.719a.436.436,0,0,0-.044-.418A7.956,7.956,0,0,1,.871,9.156a8.139,8.139,0,1,1,8.148,8.131Z" transform="translate(0 -0.154)" fill="#013564"/>
      </g>
    </g>
    <g id="Group_2039" data-name="Group 2039" transform="translate(6.274 4.432)">
      <g id="Group_2038" data-name="Group 2038">
        <path id="Path_755" data-name="Path 755" d="M159.111,107.246a2.771,2.771,0,0,0-5.511.347.436.436,0,1,0,.871,0,1.865,1.865,0,1,1,1.865,1.9.436.436,0,0,0-.436.436v1.952a.436.436,0,0,0,.871,0v-1.551A2.736,2.736,0,0,0,159.111,107.246Z" transform="translate(-153.6 -104.882)" fill="#013564"/>
      </g>
    </g>
    <g id="Group_2041" data-name="Group 2041" transform="translate(8.497 12.953)">
      <g id="Group_2040" data-name="Group 2040">
        <circle id="Ellipse_228" data-name="Ellipse 228" cx="0.477" cy="0.477" r="0.477" fill="#013564"/>
      </g>
    </g>
  </g>
</svg>
