<svg id="Group_2250" data-name="Group 2250" xmlns="http://www.w3.org/2000/svg" width="28.517" height="28.517" viewBox="0 0 28.517 28.517">
  <g id="Group_454" data-name="Group 454">
    <path id="Path_364" data-name="Path 364" d="M22.71,25.565a2.85,2.85,0,1,0-2.853-2.855A2.859,2.859,0,0,0,22.71,25.565Z" transform="translate(-8.452 -8.452)" fill="#013564"/>
    <path id="Path_365" data-name="Path 365" d="M33.64,16.709V13.96h-.358l-2.392.007.009,2.749Z" transform="translate(-13.149 -5.942)" fill="#013564"/>
    <path id="Path_366" data-name="Path 366" d="M14.259,0A14.259,14.259,0,1,0,28.517,14.259,14.275,14.275,0,0,0,14.259,0Zm8.109,12.595v6.639a3.137,3.137,0,0,1-3.134,3.135H9.284a3.137,3.137,0,0,1-3.134-3.135V9.284A3.137,3.137,0,0,1,9.284,6.15h9.949a3.137,3.137,0,0,1,3.135,3.134Z" fill="#013564"/>
    <path id="Path_367" data-name="Path 367" d="M24.422,23.593a4.435,4.435,0,1,1-8.544-1.664H13.457v6.639a1.554,1.554,0,0,0,1.554,1.553H24.96a1.555,1.555,0,0,0,1.554-1.553V21.929H24.093A4.375,4.375,0,0,1,24.422,23.593Z" transform="translate(-5.728 -9.334)" fill="#013564"/>
  </g>
</svg>
