<svg id="Group_2251" data-name="Group 2251" xmlns="http://www.w3.org/2000/svg" width="28.517" height="28.517" viewBox="0 0 28.517 28.517">
  <path id="Path_47" data-name="Path 47" d="M14.259,0A14.259,14.259,0,1,0,28.517,14.259,14.275,14.275,0,0,0,14.259,0Zm6.361,11c.006.141.01.284.01.426A9.335,9.335,0,0,1,6.26,19.284a6.627,6.627,0,0,0,4.859-1.359,3.285,3.285,0,0,1-3.066-2.28,3.294,3.294,0,0,0,1.482-.055A3.282,3.282,0,0,1,6.9,12.372c0-.014,0-.028,0-.041a3.268,3.268,0,0,0,1.486.41A3.287,3.287,0,0,1,7.374,8.36a9.319,9.319,0,0,0,6.764,3.43A3.284,3.284,0,0,1,19.73,8.8,6.551,6.551,0,0,0,21.815,8,3.3,3.3,0,0,1,20.37,9.815,6.525,6.525,0,0,0,22.255,9.3,6.6,6.6,0,0,1,20.619,11Z" transform="translate(0 0)" fill="#013564"/>
</svg>
