<svg xmlns="http://www.w3.org/2000/svg" width="34.563" height="34.563" viewBox="0 0 34.563 34.563">
  <path id="Regular-M" d="M26.021-50.5A17.409,17.409,0,0,1,8.74-67.777a17.414,17.414,0,0,1,17.3-17.281A17.4,17.4,0,0,1,43.3-67.777,17.425,17.425,0,0,1,26.021-50.5Zm-8.962-17.3a1.329,1.329,0,0,0,.491,1.017l5.9,5.913a1.251,1.251,0,0,0,.914.373,1.251,1.251,0,0,0,.91-.372,1.251,1.251,0,0,0,.36-.915,1.3,1.3,0,0,0-.39-.932l-2.169-2.152-2.118-1.763,3.694.135h9.084a1.269,1.269,0,0,0,.945-.365,1.269,1.269,0,0,0,.377-.94,1.273,1.273,0,0,0-.372-.95,1.273,1.273,0,0,0-.95-.372H24.65l-3.694.153,2.118-1.763,2.167-2.152a1.456,1.456,0,0,0,.39-.949,1.238,1.238,0,0,0-.362-.908,1.238,1.238,0,0,0-.908-.362,1.238,1.238,0,0,0-.914.356l-5.9,5.93a1.323,1.323,0,0,0-.493,1.017Z" transform="translate(-8.74 85.058)" fill="#fcfcfc"/>
</svg>
