<svg id="Group_471" data-name="Group 471" xmlns="http://www.w3.org/2000/svg" width="28.669" height="28.668" viewBox="0 0 28.669 28.668">
  <ellipse id="Ellipse_2" data-name="Ellipse 2" cx="14.334" cy="14.334" rx="14.334" ry="14.334" fill="#fff"/>
  <path id="twitter" d="M133.13,5257.351a4.907,4.907,0,0,1-1.553.439,2.966,2.966,0,0,0,1.167-1.516,4.536,4.536,0,0,1-1.746.617h0a2.8,2.8,0,0,0-4.823,1.931,2.754,2.754,0,0,0,.072.622h0a8.084,8.084,0,0,1-5.929-2.9,2.79,2.79,0,0,0,.849,3.689,1.8,1.8,0,0,1-1.222-.314,2.689,2.689,0,0,0,2.159,2.728,2.2,2.2,0,0,1-1.165.089,2.646,2.646,0,0,0,2.5,1.9,4.59,4.59,0,0,1-3.876,1.159,8.41,8.41,0,0,0,4.378,1.235,7.767,7.767,0,0,0,7.834-8.158s0-.01,0-.015,0-.025,0-.035,0-.028,0-.043A4.805,4.805,0,0,0,133.13,5257.351Z" transform="translate(-112.054 -5247.154)" fill="#004778"/>
</svg>
