<svg xmlns="http://www.w3.org/2000/svg" width="19.797" height="22.251" viewBox="0 0 19.797 22.251">
  <g id="user_7_" data-name="user (7)" transform="translate(0.197)">
    <g id="Group_2027" data-name="Group 2027">
      <g id="Group_2028" data-name="Group 2028">
        <path id="Path_739" data-name="Path 739" d="M12.091,9.539a5.074,5.074,0,1,0-4.81,0A9.693,9.693,0,0,0,0,18.911a.461.461,0,0,0,.923,0,8.764,8.764,0,0,1,17.527,0,.461.461,0,1,0,.922,0A9.693,9.693,0,0,0,12.091,9.539ZM5.535,5.074A4.151,4.151,0,1,1,9.686,9.225,4.156,4.156,0,0,1,5.535,5.074Z" fill="#fff"/>
        <path id="Path_740" data-name="Path 740" d="M0,20.616s4.744,2.857,9.348,2.857,9.071-2.857,9.071-2.857" transform="translate(0.489 -1.722)" fill="none" stroke="#fff" stroke-linecap="round" stroke-width="1"/>
      </g>
    </g>
  </g>
</svg>
